<svg xmlns="http://www.w3.org/2000/svg" width="668" height="823" viewBox="0 0 668 823" version="1.1"><path d="M 0.667 0.667 C 0.300 1.033, -0 186.209, -0 412.168 L 0 823.003 334.250 822.751 L 668.500 822.500 668.751 411.250 L 669.002 0 335.168 0 C 151.559 0, 1.033 0.300, 0.667 0.667 M 0.495 412 C 0.495 638.325, 0.610 730.912, 0.750 617.750 C 0.890 504.587, 0.890 319.412, 0.750 206.250 C 0.610 93.087, 0.495 185.675, 0.495 412 M 3 411.500 L 3 820 334 820 L 665 820 665 411.500 L 665 3 334 3 L 3 3 3 411.500 M 169.984 318.537 C 166.231 327.292, 161.033 343.614, 158.845 353.509 C 156.963 362.024, 156.627 366.676, 156.568 385 C 156.498 407.184, 157.244 413.727, 161.883 431.606 C 163.253 436.888, 163.520 439.969, 162.923 443.606 C 160.851 456.221, 162.135 472.385, 166.641 490.414 C 176.799 531.066, 210.454 584.662, 263.359 644.439 C 302.737 688.933, 319.075 706.831, 330.964 718.500 L 339.115 726.500 341.674 723.500 C 344.200 720.538, 350.308 714.050, 368.972 694.500 C 374.222 689, 385.286 677.300, 393.557 668.500 C 401.828 659.700, 413.637 647.168, 419.798 640.651 C 425.959 634.134, 431 628.396, 431 627.901 C 431 627.405, 429.903 627, 428.561 627 C 427.220 627, 419.683 625.882, 411.811 624.516 C 343.671 612.686, 283.629 581.112, 234 531.012 C 191.801 488.411, 169.722 446.049, 163.896 396.505 C 161.490 376.048, 164.282 344.085, 170.360 322.504 C 171.677 317.827, 172.569 314, 172.342 314 C 172.115 314, 171.054 316.042, 169.984 318.537" stroke="none" fill="#0d6f46" fill-rule="evenodd"/><path d="M 308.613 100.447 C 304.823 104.584, 301.111 113.627, 298.123 126 C 296.994 130.675, 294.661 140.350, 292.938 147.500 C 291.215 154.650, 288.423 164.689, 286.733 169.810 C 283.875 178.470, 283.254 179.476, 277.830 184.230 C 274.624 187.042, 272 189.966, 272 190.730 C 272 191.493, 271.608 191.876, 271.129 191.580 C 270.650 191.284, 269.368 191.820, 268.280 192.771 C 260.532 199.544, 258.815 201.272, 256.078 205.051 C 252.494 209.999, 252.080 214.643, 254.912 218.139 C 256.600 220.223, 257.627 220.490, 263.662 220.413 C 268.205 220.356, 272.011 219.650, 275 218.311 C 283.988 214.285, 289.631 212.037, 296.164 209.880 C 302.791 207.691, 302.887 207.689, 313.397 209.413 C 319.210 210.367, 329.261 212.478, 335.733 214.104 C 367.049 221.970, 377.751 223.384, 384.532 220.551 C 388.562 218.867, 388.892 217.168, 385.750 214.282 C 382.361 211.170, 362.999 202, 359.817 202 C 359.356 202, 357.071 201.151, 354.739 200.113 C 346.570 196.476, 334.485 191.989, 332.872 191.995 C 330.465 192.003, 328.735 189.411, 329.512 186.961 C 330.118 185.053, 347.924 172.753, 367.588 160.660 L 373.676 156.916 381.189 158.467 C 392.159 160.733, 402.005 160.713, 403.681 158.421 C 404.407 157.429, 405 156.141, 405 155.559 C 405 154.977, 401.811 151.478, 397.913 147.783 C 391.461 141.667, 390.885 140.800, 391.479 138.098 C 392.322 134.258, 389.674 130, 386.444 130 C 383.599 130, 383.276 129.503, 381.418 122.262 C 379.102 113.236, 377.282 110, 374.521 110 C 370.469 110, 367.024 116.766, 362.978 132.671 C 362.013 136.464, 360.977 138.197, 359.093 139.171 C 357.680 139.902, 353.646 142.229, 350.129 144.342 C 328.461 157.359, 317.598 163.058, 315 162.774 C 312.731 162.525, 312.507 162.083, 312.574 158 C 312.615 155.525, 313.202 148.550, 313.880 142.500 C 317.285 112.101, 317.087 98.501, 313.220 97.233 C 312.516 97.002, 310.443 98.449, 308.613 100.447 M 235.827 213.744 C 230.883 217.822, 219.073 229.830, 214.415 235.514 C 201.293 251.529, 189.960 273.671, 184.478 294 C 179.611 312.049, 178.654 319.994, 178.572 343 C 178.482 368.492, 180.808 384.567, 187.470 404.500 C 200.084 442.237, 226.398 478.809, 261.954 508.019 C 267.877 512.885, 267.864 512.814, 260.962 502.500 C 247.659 482.624, 241.613 463.321, 242.127 442.368 C 242.267 436.665, 242.745 432, 243.191 432 C 243.636 432, 244 430.986, 244 429.746 C 244 424.257, 252.771 404.912, 258 398.868 C 258.825 397.915, 261.517 394.714, 263.982 391.755 C 278.245 374.638, 304.064 362.579, 328 361.856 C 339.084 361.521, 352 362.076, 352 362.887 C 352 363.239, 354.317 364.077, 357.149 364.750 C 359.981 365.423, 366.168 367.843, 370.899 370.129 C 401.327 384.833, 421.969 417.925, 421.969 452 C 421.969 470.752, 416.490 486.570, 404.477 502.500 C 389.301 522.624, 366.524 535.343, 340.591 538.175 C 331.070 539.215, 319.576 538.624, 307.500 536.475 C 305.332 536.089, 306.144 536.781, 310.429 538.970 C 313.690 540.637, 317.178 542, 318.179 542 C 319.181 542, 320 542.351, 320 542.781 C 320 545.152, 354.645 555.572, 373.500 558.872 C 376.800 559.450, 382.650 560.502, 386.500 561.211 C 391.140 562.065, 402.096 562.469, 419 562.409 C 444.416 562.317, 448.631 561.893, 463.500 557.928 C 465.700 557.341, 468.512 556.615, 469.750 556.314 C 470.988 556.013, 472 555.444, 472 555.050 C 472 554.656, 472.563 554.319, 473.250 554.302 C 473.938 554.285, 477.061 553.121, 480.191 551.716 L 485.882 549.162 491.787 537.187 C 498.413 523.748, 505.127 504.015, 508.862 487 C 511.500 474.979, 512.284 465.948, 512.244 448 C 512.202 428.541, 511.194 419.434, 507.455 404.696 C 502.858 386.579, 493.531 367.182, 481.876 351.500 C 472.339 338.668, 450.867 316.680, 440.860 309.500 C 437.027 306.750, 433.353 304.036, 432.696 303.469 C 430.301 301.405, 418.305 294.289, 410.500 290.303 C 384.627 277.091, 351.105 270.363, 324.137 272.970 C 300.448 275.261, 281.279 280.446, 261.500 289.912 C 238.693 300.828, 221.168 313.197, 201.250 332.434 L 192 341.368 192.003 331.934 C 192.009 314.781, 196.196 297.359, 204.243 281 C 206.543 276.325, 208.688 272.275, 209.010 272 C 209.333 271.725, 210.685 269.925, 212.015 268 C 213.346 266.075, 214.996 263.921, 215.682 263.214 C 216.368 262.506, 217.672 260.706, 218.578 259.214 C 220.752 255.635, 231.299 246.676, 240.294 240.766 C 244.257 238.162, 248.400 235.381, 249.500 234.587 L 251.500 233.143 249.500 233.249 C 245.926 233.440, 240.079 230.916, 238.016 228.293 C 235.477 225.066, 235.463 221.419, 237.964 215.583 C 239.045 213.062, 239.754 211, 239.541 211 C 239.328 211, 237.656 212.235, 235.827 213.744" stroke="none" fill="#e02229" fill-rule="evenodd"/><path d="M 3 411.500 L 3 820 334 820 L 665 820 665 411.500 L 665 3 334 3 L 3 3 3 411.500 M 308.613 100.447 C 304.397 105.049, 300.940 114.015, 297.026 130.500 C 291.032 155.742, 289.762 160.592, 286.761 169.705 C 283.616 179.258, 282.392 180.792, 268.401 192.712 C 253.732 205.209, 250.052 212.147, 254.916 218.139 C 256.613 220.230, 257.615 220.486, 263.666 220.380 C 269.168 220.284, 272.156 219.543, 279 216.577 C 283.675 214.551, 290.875 211.733, 295 210.315 L 302.500 207.736 313.045 209.395 C 318.845 210.308, 328.970 212.406, 335.545 214.057 C 356.019 219.199, 370.192 222, 375.734 222 C 381.718 222, 388 219.811, 388 217.725 C 388 214.387, 380.624 209.930, 365.462 204.108 C 359.433 201.793, 353.600 199.515, 352.500 199.045 C 345.208 195.930, 334.239 191.990, 332.872 191.995 C 330.465 192.003, 328.735 189.411, 329.512 186.961 C 330.118 185.054, 347.924 172.753, 367.558 160.679 L 373.615 156.953 384.026 159.005 C 395.875 161.341, 402.420 160.953, 404.099 157.815 C 405.475 155.244, 403.713 152.594, 396.469 146.340 C 391.325 141.899, 390.919 141.244, 391.475 138.280 C 392.256 134.117, 389.714 130, 386.364 130 C 383.727 130, 382.943 128.631, 380.928 120.500 C 379.023 112.813, 377.312 110, 374.542 110 C 370.467 110, 367.032 116.733, 362.978 132.671 C 362.013 136.464, 360.977 138.197, 359.093 139.171 C 357.680 139.902, 353.646 142.229, 350.129 144.342 C 328.461 157.359, 317.598 163.058, 315 162.774 C 312.035 162.449, 311.940 160.911, 313.810 143.500 C 316.711 116.499, 317.236 105.655, 315.841 101.577 C 315.104 99.419, 313.924 97.464, 313.220 97.233 C 312.516 97.002, 310.443 98.449, 308.613 100.447 M 235.827 213.725 C 221.322 225.604, 207.551 242.682, 197.705 261 C 184.414 285.727, 178 312.417, 178 342.996 C 178 376.486, 184.591 403.700, 199.799 433 C 214.149 460.649, 235.159 486.007, 261.954 508.019 C 267.877 512.885, 267.864 512.814, 260.962 502.500 C 242.466 474.864, 237.464 446.508, 246.496 420.500 C 250.509 408.945, 257.388 398.475, 267.924 387.885 C 280.277 375.469, 292.632 368.786, 312.409 363.822 C 323.663 360.997, 342.355 361.001, 353.632 363.832 C 374.803 369.146, 393.227 382.164, 405.772 400.676 C 416.389 416.343, 421.969 434.026, 421.969 452 C 421.969 470.752, 416.490 486.570, 404.477 502.500 C 389.344 522.567, 366.450 535.351, 340.591 538.175 C 331.070 539.215, 319.576 538.624, 307.500 536.475 C 305.236 536.071, 305.852 536.634, 310.015 538.770 C 325.708 546.821, 352.896 555.463, 373.250 558.870 C 376.962 559.492, 383.038 560.558, 386.750 561.241 C 396.115 562.962, 442.616 562.925, 450 561.190 C 462.413 558.274, 464.675 557.696, 468.500 556.460 C 470.700 555.750, 475.519 553.807, 479.209 552.144 L 485.917 549.121 491.928 536.810 C 497.573 525.248, 504.281 506.812, 506.957 495.500 C 511.524 476.199, 512.364 468.732, 512.303 448 C 512.246 428.544, 511.251 419.658, 507.455 404.696 C 502.858 386.579, 493.531 367.182, 481.876 351.500 C 472.339 338.668, 450.867 316.680, 440.860 309.500 C 437.027 306.750, 433.353 304.036, 432.696 303.469 C 430.301 301.405, 418.305 294.289, 410.500 290.303 C 384.663 277.109, 351.209 270.386, 324.150 272.950 C 300.745 275.167, 281.318 280.427, 261.500 289.912 C 238.693 300.828, 221.168 313.197, 201.250 332.434 L 192 341.368 192.003 331.934 C 192.012 307.270, 200.418 282.860, 215.884 262.595 C 220.224 256.908, 232.506 245.820, 239.575 241.208 C 243.934 238.365, 248.400 235.374, 249.500 234.563 C 251.435 233.137, 251.409 233.088, 248.718 233.045 C 244.689 232.980, 239.513 230.570, 237.631 227.883 C 235.474 224.804, 235.573 221.163, 237.964 215.583 C 239.045 213.062, 239.754 211, 239.541 211 C 239.328 211, 237.656 212.226, 235.827 213.725 M 169.984 318.537 C 166.231 327.292, 161.033 343.614, 158.845 353.509 C 156.963 362.024, 156.627 366.676, 156.568 385 C 156.498 407.184, 157.244 413.727, 161.883 431.606 C 163.253 436.888, 163.520 439.969, 162.923 443.606 C 160.851 456.221, 162.135 472.385, 166.641 490.414 C 176.799 531.066, 210.454 584.662, 263.359 644.439 C 302.737 688.933, 319.075 706.831, 330.964 718.500 L 339.115 726.500 341.674 723.500 C 344.200 720.538, 350.308 714.050, 368.972 694.500 C 374.222 689, 385.286 677.300, 393.557 668.500 C 401.828 659.700, 413.637 647.168, 419.798 640.651 C 425.959 634.134, 431 628.396, 431 627.901 C 431 627.405, 429.903 627, 428.561 627 C 427.220 627, 419.683 625.882, 411.811 624.516 C 343.671 612.686, 283.629 581.112, 234 531.012 C 191.801 488.411, 169.722 446.049, 163.896 396.505 C 161.490 376.048, 164.282 344.085, 170.360 322.504 C 171.677 317.827, 172.569 314, 172.342 314 C 172.115 314, 171.054 316.042, 169.984 318.537" stroke="none" fill="#fbfbfb" fill-rule="evenodd"/></svg>